<svg xmlns="http://www.w3.org/2000/svg" xmlns:xlink="http://www.w3.org/1999/xlink" version="1.1" id="Layer_1" x="0px" y="0px" width="75px" height="75px" viewBox="253.847 309.245 75 75" enable-background="new 253.847 309.245 75 75" xml:space="preserve">
<g id="Layer_2">
	<g>
		<path fill="none" stroke="#000000" stroke-width="2" stroke-miterlimit="10" d="M272.708,332.138l-5.588-11.322    c-0.263-0.533-0.041-1.181,0.493-1.441l2.74-1.333c0.535-0.26,1.178-0.033,1.43,0.505l3.946,8.404"/>
	</g>
	<g>
		
			<line fill="none" stroke="#000000" stroke-width="2" stroke-miterlimit="10" x1="284.579" y1="344.816" x2="279.896" y2="347.093"/>
	</g>
	<g>
		<path fill="none" stroke="#000000" stroke-width="2" stroke-miterlimit="10" d="M304.315,347.137    c-0.155,0.573-0.75,0.916-1.324,0.762l-2.943-0.792c-0.574-0.155-0.917-0.75-0.763-1.325l7.314-27.171    c0.154-0.573,0.75-0.917,1.324-0.762l2.941,0.792c0.574,0.154,0.916,0.75,0.762,1.324L304.315,347.137z"/>
	</g>
	<g>
		
			<line fill="none" stroke="#000000" stroke-width="2" stroke-miterlimit="10" x1="280.981" y1="345.656" x2="275.773" y2="345.684"/>
	</g>
	<g>
		<path fill="none" stroke="#000000" stroke-width="2" stroke-miterlimit="10" d="M275.717,335.159l-0.101-18.693    c-0.003-0.594,0.48-1.083,1.074-1.086l3.047-0.017c0.594-0.003,1.083,0.48,1.086,1.075l0.093,16.457"/>
	</g>
	<g>
		<path fill="none" stroke="#000000" stroke-width="2" stroke-miterlimit="10" d="M287.731,345.876    c0.437,0.402,0.466,1.089,0.064,1.526l-2.063,2.243c-0.401,0.437-1.088,0.466-1.525,0.064l-20.716-19.042    c-0.437-0.402-0.466-1.089-0.064-1.526l2.062-2.243c0.402-0.438,1.088-0.466,1.526-0.064L287.731,345.876z"/>
	</g>
	<g>
		<path fill="none" stroke="#000000" stroke-width="2" stroke-miterlimit="10" d="M284.838,337.149l-3.19,7.694    c-0.228,0.548-0.864,0.813-1.414,0.587l-3.818-1.567"/>
	</g>
	<g>
		<path fill="none" stroke="#000000" stroke-width="2" stroke-miterlimit="10" d="M289.439,325.857"/>
	</g>
	<g>
		<path fill="none" stroke="#000000" stroke-width="2" stroke-miterlimit="10" d="M287.924,315.836"/>
	</g>
	<g>
		<path fill="none" stroke="#000000" stroke-width="2" stroke-miterlimit="10" d="M286.343,319.688"/>
	</g>
	<g>
		
			<line fill="none" stroke="#000000" stroke-width="2" stroke-miterlimit="10" x1="278.852" y1="337.93" x2="283.034" y2="327.747"/>
	</g>
	<g>
		<path fill="none" stroke="#000000" stroke-width="2" stroke-miterlimit="10" d="M304.117,351.937    c-0.276,0.525-0.933,0.729-1.458,0.454l-2.697-1.418c-0.526-0.276-0.73-0.933-0.454-1.458l13.092-24.907    c0.277-0.525,0.934-0.729,1.459-0.453l2.697,1.418c0.525,0.276,0.73,0.933,0.453,1.458L304.117,351.937z"/>
	</g>
	<g>
		<path fill="none" stroke="#000000" stroke-width="2" stroke-miterlimit="10" d="M304.342,325.826l5.539,17.658    c0.178,0.566-0.141,1.176-0.707,1.354l-2.909,0.912c-0.565,0.178-1.175-0.141-1.353-0.708l-2.896-9.233"/>
	</g>
	<g>
		<path fill="none" stroke="#000000" stroke-width="2" stroke-miterlimit="10" d="M301.136,315.605"/>
	</g>
	<g>
		<path fill="none" stroke="#000000" stroke-width="2" stroke-miterlimit="10" d="M298.608,324.976l-2.12-6.781    c-0.177-0.567,0.142-1.176,0.708-1.354l2.704-0.848"/>
	</g>
	<g>
		<path fill="none" stroke="#000000" stroke-width="2" stroke-miterlimit="10" d="M287.387,321.633l4.676,26.222    c0.104,0.585-0.289,1.148-0.873,1.253l-3,0.535c-0.585,0.104-1.149-0.289-1.253-0.874l-4.94-27.701    c-0.104-0.585,0.289-1.149,0.874-1.253l3.036-0.542"/>
	</g>
	<g>
		<path fill="none" stroke="#000000" stroke-width="2" stroke-miterlimit="10" d="M294.098,346.151l-4.113-0.34    c-0.592-0.05-1.037-0.574-0.987-1.166l1.381-16.678"/>
	</g>
	<g>
		<path fill="none" stroke="#000000" stroke-width="2" stroke-miterlimit="10" d="M291.194,317.975l0.121-1.373    c0.052-0.591,0.579-1.036,1.17-0.987l3.038,0.252c0.592,0.049,1.038,0.573,0.989,1.166l-0.78,9.691"/>
	</g>
	<g>
		<path fill="none" stroke="#000000" stroke-width="2" stroke-miterlimit="10" d="M297.503,330.371l2.629-14.367    c0.107-0.584,0.673-0.979,1.258-0.877l3.002,0.525c0.585,0.102,0.98,0.665,0.877,1.25l-4.843,27.718    c-0.102,0.584-0.665,0.98-1.25,0.877l-4.065-0.71"/>
	</g>
	<g>
		<path fill="none" stroke="#000000" stroke-width="2" stroke-miterlimit="10" d="M302.337,339.951    c0.267,0.531,0.051,1.184-0.481,1.45l-2.723,1.366c-0.53,0.266-1.183,0.05-1.45-0.481l-12.62-25.148    c-0.267-0.532-0.05-1.184,0.481-1.451l2.724-1.366c0.531-0.267,1.184-0.051,1.45,0.48L302.337,339.951z"/>
	</g>
</g>
<g id="Layer_1_1_">
	<g>
		<path d="M286.005,377.889h20.023c1.273,0,2.55-1.015,2.835-2.255l8.133-35.107c0.287-1.24-0.52-2.255-1.793-2.255h-26.884    c-1.273,0-1.273,0,0,0h6.736c1.273,0,1.273,0,0,0h-26.884c-1.273,0-2.08,1.015-1.792,2.255l8.131,35.107    c0.287,1.24,1.563,2.255,2.837,2.255h20.022"/>
	</g>
</g>
</svg>