<svg xmlns="http://www.w3.org/2000/svg" xmlns:xlink="http://www.w3.org/1999/xlink" version="1.1" x="0px" y="0px" width="100px" height="100px" viewBox="0 0 100 100" enable-background="new 0 0 100 100" xml:space="preserve">
<g id="Captions">
</g>
<g id="Your_Icon">
	<path d="M53.667,21.751c-0.953,0-1.903,0.165-2.802,0.477c-0.426-0.457-0.889-0.875-1.393-1.249   c0.012-0.198,0.022-0.397,0.022-0.596c0-5.754-4.682-10.436-10.436-10.436c-4.902,0-9.067,3.378-10.158,8.037   c-5.199,0.59-9.252,5.012-9.252,10.367c0,1.336,0.261,2.611,0.723,3.787c-0.312,0.646-0.501,1.362-0.501,2.125v10.942   c0,1.83,1.004,3.426,2.486,4.277c0.273,7.707,1.358,18.595,5.555,29.3c1.564,3.991,3.103,7,4.226,9.196   c0.787,1.542,1.6,3.13,1.702,3.783c-0.532,0.177-1.295,0.39-2.178,0.636c-5.435,1.519-9.642,2.882-10.277,5.427h0.088   c-0.052,0.121-0.088,0.261-0.088,0.446c0,0.982,0.797,1.779,1.78,1.779h35.569c0.982,0,1.779-0.797,1.779-1.779   c0-0.186-0.036-0.325-0.088-0.446h0.027c-0.636-2.545-4.844-3.908-10.277-5.427c-0.883-0.246-1.647-0.459-2.178-0.636   c0.103-0.653,0.915-2.241,1.702-3.783c1.123-2.196,2.662-5.205,4.225-9.196c4.197-10.705,5.281-21.594,5.556-29.3   c1.482-0.851,2.485-2.447,2.485-4.277V34.264c0-0.467-0.086-0.911-0.208-1.339c0.274-0.837,0.43-1.728,0.43-2.656   C62.186,25.572,58.364,21.751,53.667,21.751z M51.34,77.771c-1.514,3.862-3.016,6.801-4.112,8.945   c-1.562,3.057-2.424,4.74-1.829,6.194c0.287,0.699,0.861,1.197,1.708,1.479c0.597,0.199,1.396,0.423,2.322,0.682   c1.356,0.379,4.625,1.294,6.645,2.225H25.764c2.022-0.932,5.287-1.846,6.643-2.225c0.924-0.259,1.724-0.482,2.32-0.682   c0.848-0.282,1.422-0.78,1.708-1.479c0.595-1.454-0.265-3.138-1.828-6.194c-1.097-2.145-2.599-5.083-4.113-8.945   c-3.871-9.873-4.998-19.906-5.324-27.633h3.196c0,0,0.873,13.466,3.572,21.006c2.699,7.539,5.18,10.952,8.979,10.952   c3.8,0,6.28-3.413,8.979-10.952c2.699-7.54,3.571-21.006,3.571-21.006h3.196C56.339,57.863,55.213,67.894,51.34,77.771z    M59.19,36.741v8.465c0,1.192-0.967,2.158-2.159,2.158H24.803c-1.192,0-2.158-0.966-2.158-2.158v-9.55v-1.392   c0-0.81,0.452-1.508,1.112-1.877c0.311-0.174,0.664-0.281,1.045-0.281h32.229c0.641,0,1.209,0.284,1.604,0.726   c0.341,0.382,0.555,0.88,0.555,1.432V36.741z M57.031,29.331H24.803c-0.748,0-1.451,0.181-2.086,0.48   c-0.094-0.472-0.145-0.96-0.145-1.46c0-4.143,3.37-7.514,7.513-7.514c1.226,0,2.396,0.286,3.474,0.849   c0.715,0.374,1.597,0.097,1.972-0.618c0.373-0.715,0.096-1.598-0.618-1.971c-0.94-0.492-1.957-0.834-3.004-1.02   c0.977-3.051,3.828-5.208,7.151-5.208c4.142,0,7.513,3.371,7.513,7.514c0,0.37-0.027,0.742-0.08,1.105   c-0.004,0.026-0.001,0.052-0.004,0.078c-0.005,0.069-0.013,0.137-0.009,0.205c0.003,0.058,0.015,0.111,0.023,0.167   c0.006,0.037,0.008,0.075,0.018,0.111c0.014,0.057,0.036,0.11,0.056,0.164c0.013,0.035,0.022,0.07,0.038,0.104   c0.023,0.049,0.053,0.095,0.081,0.141c0.021,0.035,0.039,0.07,0.063,0.103c0.035,0.049,0.076,0.092,0.118,0.137   c0.023,0.024,0.043,0.051,0.068,0.074c0.073,0.068,0.151,0.128,0.238,0.181c0.816,0.501,1.52,1.145,2.095,1.913   c0.004,0.006,0.009,0.009,0.014,0.015c0.067,0.087,0.141,0.167,0.224,0.235c0.011,0.01,0.025,0.016,0.037,0.026   c0.071,0.054,0.145,0.103,0.223,0.143c0.036,0.018,0.071,0.031,0.107,0.047c0.061,0.025,0.12,0.047,0.183,0.064   c0.041,0.011,0.081,0.02,0.123,0.027c0.062,0.011,0.123,0.018,0.185,0.021c0.026,0.001,0.05,0.008,0.076,0.008   c0.023,0,0.046-0.004,0.069-0.005c0.026-0.002,0.052-0.004,0.079-0.006c0.068-0.007,0.135-0.02,0.203-0.036   c0.019-0.004,0.039-0.007,0.057-0.014c0.093-0.027,0.184-0.061,0.271-0.107c0.79-0.404,1.645-0.609,2.54-0.609   c2.954,0,5.375,2.303,5.577,5.206C58.575,29.541,57.83,29.331,57.031,29.331z"/>
	<path d="M79.582,2.376L66.763,0.117c-0.618-0.111-1.252-0.167-1.879-0.167c-5.253,0-9.726,3.756-10.641,8.932l-1.778,10.087   c0.398-0.042,0.8-0.074,1.202-0.074c1.735,0,3.373,0.402,4.846,1.099l1.771-10.045c0.396-2.239,2.331-3.863,4.6-3.863   c0.27,0,0.544,0.024,0.814,0.07l12.819,2.263c0.244,0.041,0.492-0.014,0.693-0.154c0.201-0.142,0.339-0.355,0.384-0.601   l0.742-4.209C80.425,2.947,80.088,2.465,79.582,2.376z"/>
</g>
</svg>